<svg xmlns="http://www.w3.org/2000/svg" viewBox="0 0 1096.44 276.05"><circle cx="138.02" cy="138.02" r="138.02" fill="#ff5d08"/><path d="M129.44,190.31v24.86a1.94,1.94,0,0,1-1.94,1.94H70.86a1.94,1.94,0,0,1-1.94-1.94V60.88a1.94,1.94,0,0,1,1.94-1.94H127.5a1.94,1.94,0,0,1,1.94,1.94V85.73a1.94,1.94,0,0,1-1.94,2H113.74a1.94,1.94,0,0,0-1.95,1.94v96.81a1.94,1.94,0,0,0,1.95,1.94H127.5A1.94,1.94,0,0,1,129.44,190.31Zm83-66.65c-4.86,0-8.35-2.37-8.35-7.44V94.93c0-22.81-15.14-36-45.22-36H146.49a1.94,1.94,0,0,0-2,1.94V85.72a2,2,0,0,0,2,2h0c9.12,0,13.78,4.22,13.78,11.66v16c0,11.26,3.36,17.48,10.77,20.9a1.93,1.93,0,0,1,0,3.48c-7.41,3.43-10.77,9.65-10.77,20.91v16.05c0,7.44-4.66,11.66-13.78,11.66h0a1.94,1.94,0,0,0-2,1.94v24.85a1.94,1.94,0,0,0,2,1.94h12.42c30.08,0,45.22-13.18,45.22-36v-21.3c0-5.07,3.49-7.43,8.35-7.43h4.46a1.94,1.94,0,0,0,1.94-1.94V125.6a1.94,1.94,0,0,0-1.94-1.94Z" fill="#f4f4f4"/><path d="M319.15,60.71a1.94,1.94,0,0,1,1.94-1.94h79.68c55,0,92.77,29.65,92.77,79.17s-37.81,79.17-92.77,79.17H321.09a1.94,1.94,0,0,1-1.94-1.94Zm79.71,109.6c18,0,31.56-10.33,31.56-32.37s-13.6-32.38-31.56-32.38h-15.2a1.94,1.94,0,0,0-1.94,2v60.86a1.94,1.94,0,0,0,1.94,1.94Zm253.84,3.85v41a1.94,1.94,0,0,1-1.94,1.94H516.43a1.94,1.94,0,0,1-1.94-1.94V60.71a1.94,1.94,0,0,1,1.94-1.94H647.77a1.94,1.94,0,0,1,1.94,1.94v41a1.94,1.94,0,0,1-1.94,1.94H577.92A1.94,1.94,0,0,0,576,105.6V114a1.94,1.94,0,0,0,1.94,1.94h60.6a1.94,1.94,0,0,1,1.94,1.94v38a1.94,1.94,0,0,1-1.94,1.94h-60.6a1.94,1.94,0,0,0-1.94,1.94v10.54a1.94,1.94,0,0,0,1.94,1.94h72.84A1.94,1.94,0,0,1,652.7,174.16ZM850.16,61.47,784.61,215.93a2,2,0,0,1-1.78,1.18H723.91a1.94,1.94,0,0,1-1.79-1.18L656.3,61.47a1.94,1.94,0,0,1,1.79-2.7H720a1.93,1.93,0,0,1,1.8,1.22l31.48,79.21a1.94,1.94,0,0,0,3.6,0L789.6,60a1.94,1.94,0,0,1,1.79-1.2h57A1.94,1.94,0,0,1,850.16,61.47Z" fill="#f4f4f4"/><path d="M867.67,58.77h58.69a1.94,1.94,0,0,1,1.95,1.94V215.17a1.94,1.94,0,0,1-1.95,1.94H867.67a1.94,1.94,0,0,1-1.94-1.94V60.71A1.94,1.94,0,0,1,867.67,58.77ZM986.76,105H945.48a1.94,1.94,0,0,1-1.94-1.94V60.71a1.94,1.94,0,0,1,1.94-1.94h149a1.94,1.94,0,0,1,1.94,1.94v42.37a1.94,1.94,0,0,1-1.94,1.94h-41.28a1.94,1.94,0,0,0-1.94,1.94V215.17a1.94,1.94,0,0,1-1.94,1.94H990.65a1.94,1.94,0,0,1-1.94-1.94V107A1.94,1.94,0,0,0,986.76,105Z" fill="#ff5d08"/></svg>