<svg xmlns="http://www.w3.org/2000/svg" viewBox="0 0 276.05 276.05"><circle cx="138.02" cy="138.02" r="138.02" fill="#ff5d08"/><path d="M129.44,188.37v28.74H68.92V58.94h60.52V87.68H111.79V188.37Zm83-64.71c-4.86,0-8.35-2.37-8.35-7.44V94.93c0-22.81-15.14-36-45.22-36H144.54V87.67h2c9.12,0,13.78,4.22,13.78,11.66v16c0,13.52,4.85,19.77,15.72,22.64-10.87,2.88-15.72,9.13-15.72,22.65v16.05c0,7.44-4.66,11.66-13.78,11.66h-2v28.73h14.37c30.08,0,45.22-13.18,45.22-36v-21.3c0-5.07,3.49-7.43,8.35-7.43h6.4V123.66Z" fill="#f4f4f4"/></svg>