<svg width="100%" height="100%" viewBox="0 0 14 14" fill="#f4f4f4" xmlns="http://www.w3.org/2000/svg">
  <path d="M7 3C6.50555 3 6.0222 3.14662 5.61108 3.42133C5.19995 3.69603 4.87952 4.08648 4.6903 4.54329C4.50108 5.00011 4.45157 5.50277 4.54804 5.98773C4.6445 6.47268 4.8826 6.91814 5.23223 7.26777C5.58187 7.6174 6.02732 7.8555 6.51228 7.95196C6.99723 8.04843 7.4999 7.99892 7.95671 7.8097C8.41353 7.62048 8.80397 7.30005 9.07868 6.88893C9.35338 6.4778 9.5 5.99445 9.5 5.5C9.5 4.83696 9.23661 4.20107 8.76777 3.73223C8.29893 3.26339 7.66304 3 7 3Z"/>
  <path d="M7 0C5.61553 0 4.26216 0.410543 3.11101 1.17971C1.95987 1.94888 1.06266 3.04213 0.532846 4.32122C0.00303298 5.6003 -0.13559 7.00777 0.134506 8.36563C0.404603 9.7235 1.07129 10.9708 2.05026 11.9497C3.02922 12.9287 4.2765 13.5954 5.63437 13.8655C6.99224 14.1356 8.3997 13.997 9.67879 13.4672C10.9579 12.9373 12.0511 12.0401 12.8203 10.889C13.5895 9.73785 14 8.38447 14 7C13.9979 5.14413 13.2597 3.36489 11.9474 2.05259C10.6351 0.740295 8.85587 0.00211736 7 0V0ZM10.996 11.463C10.986 10.8072 10.7188 10.1815 10.252 9.72079C9.78508 9.26009 9.15591 9.00124 8.5 9H5.5C4.84409 9.00124 4.21492 9.26009 3.74805 9.72079C3.28117 10.1815 3.01397 10.8072 3.004 11.463C2.09729 10.6534 1.45787 9.58744 1.17042 8.40633C0.882972 7.22523 0.961053 5.98467 1.39432 4.84893C1.82759 3.71319 2.59561 2.73583 3.59669 2.04628C4.59776 1.35673 5.78467 0.987513 7.00025 0.987513C8.21583 0.987513 9.40274 1.35673 10.4038 2.04628C11.4049 2.73583 12.1729 3.71319 12.6062 4.84893C13.0395 5.98467 13.1175 7.22523 12.8301 8.40633C12.5426 9.58744 11.9032 10.6534 10.9965 11.463H10.996Z"/>
</svg>
